<?xml version="1.0" encoding="utf-8"?>
<!-- Generator: Adobe Illustrator 16.0.3, SVG Export Plug-In . SVG Version: 6.00 Build 0)  -->
<svg version="1.2" baseProfile="tiny" id="Layer_1" xmlns="http://www.w3.org/2000/svg" xmlns:xlink="http://www.w3.org/1999/xlink"
	 x="0px" y="0px" width="32px" height="32px" viewBox="0 0 32 32" xml:space="preserve">
<g>
	<path fill="#FFFFFF" d="M16,32C7.169,32,0,24.831,0,16S7.169,0,16,0s16,7.169,16,16S24.831,32,16,32z M2.667,16
		c0,7.351,5.981,13.334,13.333,13.334c7.351,0,13.334-5.983,13.334-13.334c0-7.352-5.983-13.333-13.334-13.333
		C8.648,2.667,2.667,8.648,2.667,16z"/>
	<path fill="#FFFFFF" d="M26.192,15.751l-9.718,9.717c-0.119,0.109-0.311,0.201-0.475,0.201s-0.356-0.092-0.475-0.201l-9.717-9.717
		c-0.119-0.127-0.202-0.31-0.202-0.475c0-0.164,0.083-0.365,0.202-0.475l1.049-1.059c0.119-0.11,0.284-0.201,0.476-0.201
		c0.164,0,0.356,0.091,0.475,0.201l8.192,8.2l8.191-8.2c0.119-0.11,0.311-0.201,0.476-0.201c0.164,0,0.356,0.091,0.475,0.201
		l1.051,1.059c0.118,0.11,0.2,0.311,0.2,0.475C26.393,15.441,26.311,15.624,26.192,15.751z"/>
</g>
</svg>
