<?xml version="1.0" encoding="utf-8"?>
<!-- Generator: Adobe Illustrator 16.0.3, SVG Export Plug-In . SVG Version: 6.00 Build 0)  -->
<svg version="1.2" baseProfile="tiny" id="Layer_1" xmlns="http://www.w3.org/2000/svg" xmlns:xlink="http://www.w3.org/1999/xlink"
	 x="0px" y="0px" width="128px" height="128px" viewBox="0 0 128 128" xml:space="preserve">
<path fill="#7D8F94" d="M64.001,0.001C28.656,0.001,0,28.651,0,63.998c0,35.346,28.656,64.001,64.001,64.001
	c35.343,0,63.999-28.655,63.999-64.001C128,28.651,99.346,0.001,64.001,0.001z M93.071,49.092c0.047,0.65,0.047,1.3,0.047,1.95
	c0,19.829-15.093,42.678-42.678,42.678c-8.496,0-16.394-2.461-23.031-6.733c1.205,0.138,2.366,0.186,3.622,0.186
	c7.011,0,13.465-2.37,18.62-6.411c-6.593-0.139-12.121-4.458-14.023-10.402c0.927,0.143,1.858,0.234,2.833,0.234
	c1.348,0,2.501-0.187,3.756-0.511C35.343,68.691,30,62.652,30,55.361c0-0.044,0-0.138,0-0.186c2,1.117,4.507,1.81,6.97,1.905
	c-4.041-2.694-6.592-7.291-6.592-12.491c0-2.789,0.792-5.341,2.092-7.572c7.382,9.102,18.504,15.046,30.948,15.696
	c-0.23-1.113-0.357-2.274-0.357-3.436c0-8.267,6.691-14.999,15.004-14.999c4.32,0,8.222,1.811,10.96,4.736
	c3.392-0.651,6.643-1.902,9.523-3.622c-1.118,3.482-3.483,6.407-6.593,8.265c3.016-0.325,5.944-1.161,8.635-2.321
	C98.55,44.309,95.995,46.956,93.071,49.092z"/>
</svg>
