<?xml version="1.0" encoding="utf-8"?>
<!-- Generator: Adobe Illustrator 16.0.3, SVG Export Plug-In . SVG Version: 6.00 Build 0)  -->
<svg version="1.2" baseProfile="tiny" id="Layer_1" xmlns="http://www.w3.org/2000/svg" xmlns:xlink="http://www.w3.org/1999/xlink"
	 x="0px" y="0px" width="128px" height="128px" viewBox="0 0 128 128" xml:space="preserve">
<path fill="#7D8F94" d="M64.001,128C28.642,128,0,99.359,0,64.001C0,28.641,28.642,0,64.001,0C99.359,0,128,28.641,128,64.001
	C128,99.359,99.359,128,64.001,128z M93.855,53.358c-2.426,0-4.57,1-6.139,2.573c-5.79-3.999-13.574-6.572-22.217-6.859
	l4.498-20.216l14.287,3.217c0,3.5,2.858,6.357,6.357,6.357c3.572,0,6.43-2.932,6.43-6.43c0-3.5-2.857-6.43-6.43-6.43
	c-2.498,0-4.645,1.499-5.711,3.572l-15.786-3.499c-0.788-0.214-1.573,0.359-1.787,1.146l-4.93,22.283
	C53.857,49.426,46.142,52,40.357,56.003c-1.572-1.645-3.786-2.645-6.212-2.645c-4.717,0-8.574,3.784-8.574,8.497
	c0,3.432,2,6.29,4.857,7.716c-0.287,1.287-0.427,2.645-0.427,3.999c0,13.574,15.287,24.576,34.072,24.576
	c18.854,0,34.14-11.002,34.14-24.576c0-1.354-0.14-2.786-0.499-4.071c2.786-1.426,4.718-4.284,4.718-7.643
	C102.432,57.142,98.572,53.358,93.855,53.358z M49.926,76.789c-3.572,0-6.424-2.86-6.424-6.358c0-3.572,2.852-6.43,6.424-6.43
	c3.504,0,6.357,2.858,6.357,6.43C56.284,73.929,53.43,76.789,49.926,76.789z M78.215,85.571c-4.072,4.071-11.93,4.431-14.214,4.431
	c-2.286,0-10.144-0.359-14.215-4.431c-0.64-0.572-0.64-1.572,0-2.212c0.573-0.573,1.572-0.573,2.146,0
	c2.566,2.639,8.138,3.5,12.069,3.5c3.931,0,9.429-0.86,12.069-3.5c0.572-0.573,1.57-0.573,2.145,0
	C78.854,83.999,78.854,84.999,78.215,85.571z M78.074,76.789c-3.504,0-6.357-2.86-6.357-6.358c0-3.572,2.854-6.43,6.357-6.43
	c3.572,0,6.426,2.858,6.426,6.43C84.5,73.929,81.646,76.789,78.074,76.789z"/>
</svg>
