<?xml version="1.0" encoding="utf-8"?>
<!-- Generator: Adobe Illustrator 16.0.3, SVG Export Plug-In . SVG Version: 6.00 Build 0)  -->
<svg version="1.2" baseProfile="tiny" id="Layer_1" xmlns="http://www.w3.org/2000/svg" xmlns:xlink="http://www.w3.org/1999/xlink"
	 x="0px" y="0px" width="128px" height="128px" viewBox="0 0 128 128" xml:space="preserve">
<path fill="#7D8F94" d="M128,64c0,28.251-18.332,52.25-43.748,60.749c-3.25,0.584-4.416-1.416-4.416-3.084
	c0-2.084,0.079-8.996,0.079-17.581c0-6.001-1.998-9.834-4.331-11.832c14.25-1.585,29.248-7.004,29.248-31.587
	c0-6.998-2.496-12.665-6.585-17.165c0.669-1.666,2.837-8.166-0.661-16.996C92.251,24.832,80,33.08,80,33.08
	c-5.085-1.416-10.581-2.162-16-2.162s-10.915,0.746-16,2.162c0,0-12.253-8.248-17.586-6.577c-3.498,8.831-1.33,15.331-0.661,16.996
	c-4.089,4.5-6.585,10.167-6.585,17.165c0,24.505,14.912,30.002,29.163,31.587c-1.829,1.663-3.499,4.494-4.083,8.582
	c-3.661,1.666-12.997,4.497-18.58-5.333c-3.5-6.086-9.834-6.584-9.834-6.584c-6.252-0.085-0.419,3.917-0.419,3.917
	c4.165,1.914,7.088,9.331,7.088,9.331c3.748,11.42,21.582,7.586,21.582,7.586c0,5.334,0.079,10.333,0.079,11.914
	c0,1.669-1.168,3.669-4.416,3.084C18.332,116.25,0,92.251,0,64C0,28.665,28.664,0,64,0S128,28.665,128,64z M23.666,90.915
	c-0.498-0.164-0.916-0.085-1.08,0.171c-0.171,0.327,0.077,0.746,0.582,0.994c0.412,0.25,0.918,0.171,1.082-0.164
	C24.418,91.584,24.164,91.165,23.666,90.915z M26.666,93.418c-0.418-0.421-1.002-0.584-1.33-0.25
	c-0.333,0.25-0.254,0.833,0.165,1.331c0.419,0.419,1.002,0.583,1.329,0.248C27.164,94.5,27.086,93.915,26.666,93.418z
	 M29.334,96.917c-0.335-0.583-1.002-0.833-1.416-0.498c-0.419,0.248-0.419,0.917,0,1.5c0.414,0.583,1.081,0.833,1.416,0.583
	C29.753,98.168,29.753,97.499,29.334,96.917z M32.499,100.415c-0.585-0.583-1.331-0.667-1.665-0.248
	c-0.42,0.334-0.248,1.081,0.334,1.584c0.583,0.584,1.331,0.664,1.664,0.25C33.166,101.667,33.003,100.913,32.499,100.415z
	 M36.501,102.747c-0.667-0.164-1.415,0.086-1.585,0.584c-0.164,0.504,0.335,1.086,1.086,1.25c0.662,0.25,1.416,0,1.58-0.498
	C37.752,103.58,37.249,102.997,36.501,102.747z M41.416,103.58c-0.748,0-1.33,0.419-1.33,0.917c0,0.583,0.582,1.002,1.414,0.917
	c0.747,0,1.332-0.414,1.332-0.917C42.832,103.915,42.168,103.501,41.416,103.58z M46.166,102.918
	c-0.748,0.164-1.252,0.662-1.168,1.245c0.087,0.505,0.754,0.838,1.502,0.669c0.752-0.164,1.25-0.669,1.166-1.167
	S46.92,102.833,46.166,102.918z"/>
</svg>
