<?xml version="1.0" encoding="utf-8"?>
<!-- Generator: Adobe Illustrator 16.0.3, SVG Export Plug-In . SVG Version: 6.00 Build 0)  -->
<svg version="1.2" baseProfile="tiny" id="Layer_1" xmlns="http://www.w3.org/2000/svg" xmlns:xlink="http://www.w3.org/1999/xlink"
	 x="0px" y="0px" width="128px" height="128px" viewBox="0 0 128 128" xml:space="preserve">
<g>
	
		<rect x="56.666" y="56.377" transform="matrix(0.319 0.9478 -0.9478 0.319 104.0178 -17.1479)" fill="#7D8F94" width="14.551" height="14.858"/>
	<path fill="#7D8F94" d="M64.001,0.001C28.656,0.001,0,28.651,0,63.998c0,35.346,28.656,64.001,64.001,64.001
		c35.343,0,63.999-28.655,63.999-64.001C128,28.651,99.346,0.001,64.001,0.001z M96.485,74.131l-6.848,2.305l2.355,6.998
		c1.137,3.377-0.68,7.036-4.057,8.173s-7.035-0.68-8.173-4.057l-2.354-6.998l-14.081,4.739l2.383,7.079
		c1.137,3.376-0.68,7.035-4.057,8.172s-7.035-0.679-8.172-4.057L51.1,89.407l-6.534,2.199c-3.377,1.136-7.036-0.681-8.172-4.058
		c-1.137-3.376,0.679-7.035,4.056-8.172l6.534-2.198l-4.642-13.79l-6.712,2.259c-3.377,1.137-7.036-0.68-8.172-4.057
		c-1.137-3.377,0.68-7.035,4.056-8.172l6.712-2.259l-2.219-6.595c-1.137-3.377,0.68-7.035,4.056-8.172
		c3.377-1.137,7.036,0.68,8.172,4.056l2.219,6.595l14.081-4.739L62.29,35.63c-1.137-3.377,0.68-7.036,4.056-8.172
		c3.377-1.137,7.036,0.68,8.172,4.056l2.247,6.675l6.67-2.244c3.377-1.138,7.035,0.679,8.172,4.056s-0.68,7.036-4.057,8.172
		l-6.67,2.245l4.642,13.791l6.849-2.306c3.377-1.137,7.035,0.68,8.172,4.056C101.679,69.336,99.863,72.994,96.485,74.131z"/>
</g>
</svg>
