<svg id="Layer_1" data-name="Layer 1" xmlns="http://www.w3.org/2000/svg" viewBox="0 0 476.95 218.41"><defs><style>.cls-1,.cls-2{fill:#fff;}.cls-2{stroke:#fff;}</style></defs><title>weblogov1-white</title><path class="cls-1" d="M143.41,50.29H131.17v-20H111.59v20H99.28V0.71h12.31V21.48h19.58V0.71h12.24V50.29h0Z" transform="translate(0 0.04)"/><path class="cls-1" d="M195.46,30a20,20,0,0,1-6.19,15.1Q183.12,51,173.12,51t-16.31-5.94A19.94,19.94,0,0,1,150.56,30V21A20,20,0,0,1,156.79,6Q163,0,173,0t16.2,6A20,20,0,0,1,195.49,21V30h0Zm-12.24-9a13.7,13.7,0,0,0-2.67-8.72,10.14,10.14,0,0,0-15.15,0A13.82,13.82,0,0,0,162.77,21v9a13.81,13.81,0,0,0,2.67,8.79,9.14,9.14,0,0,0,7.64,3.4,8.93,8.93,0,0,0,7.48-3.4A13.89,13.89,0,0,0,183.21,30V21h0Z" transform="translate(0 0.04)"/><path class="cls-1" d="M214.89,31.29v19H202.58V0.71h20.34q9.19,0,14.56,4a12.83,12.83,0,0,1,5.38,10.9,10.39,10.39,0,0,1-2.16,6.61,15.26,15.26,0,0,1-6.37,4.49q4.87,1.29,7,4.31a12.7,12.7,0,0,1,2.13,7.51v3.13a18.57,18.57,0,0,0,.62,4.43,5.79,5.79,0,0,0,2.14,3.54v0.68H233.56a5.54,5.54,0,0,1-1.91-3.75,30,30,0,0,1-.45-5v-3a7.07,7.07,0,0,0-2-5.41,8.25,8.25,0,0,0-5.85-1.87h-8.46Zm0-8.85H223a8.83,8.83,0,0,0,5.67-1.58,5.5,5.5,0,0,0,2-4.55,6.33,6.33,0,0,0-2-4.89A8.09,8.09,0,0,0,223,9.56h-8V22.43h-0.09Z" transform="translate(0 0.04)"/><path class="cls-1" d="M264.75,50.29H252.51V0.71h12.24V50.29Z" transform="translate(0 0.04)"/><path class="cls-1" d="M287.27,41.44h24.08v8.85H272.12V45.11L295.81,9.57H272V0.72h39v5Z" transform="translate(0 0.04)"/><path class="cls-1" d="M360.12,30a20,20,0,0,1-6.19,15.1Q347.74,51,337.75,51t-16.31-5.94A19.94,19.94,0,0,1,315.19,30V21A20,20,0,0,1,321.42,6q6.23-6,16.25-6t16.2,6A20,20,0,0,1,360.12,21V30Zm-12.24-9a13.7,13.7,0,0,0-2.67-8.72,10.14,10.14,0,0,0-15.15,0A13.82,13.82,0,0,0,327.43,21v9a13.81,13.81,0,0,0,2.67,8.79,9.14,9.14,0,0,0,7.64,3.4,8.93,8.93,0,0,0,7.48-3.4A13.89,13.89,0,0,0,347.87,30V21h0Z" transform="translate(0 0.04)"/><path class="cls-1" d="M411.34,50.29H399.12l-19.36-31.6-0.22.07V50.29H367.21V0.71h12.31l19.36,31.6,0.22-.07V0.71h12.24V50.29Z" transform="translate(0 0.04)"/><path class="cls-1" d="M111.59,125.12h22.77V134H99.28V84.4h12.31v40.72Z" transform="translate(0 0.04)"/><path class="cls-1" d="M168.36,124.34H151.69l-3,9.64H136.36L153.43,84.4h13.19L183.73,134H171.38Zm-13.95-8.85h11.22l-5.51-17.75H159.9Z" transform="translate(0 0.04)"/><path class="cls-1" d="M230.25,84.4v32.48q0,8.48-6,13.14t-15.74,4.67q-9.84,0-15.87-4.67t-6-13.14V84.4H199v32.48q0,4.56,2.51,6.76t7.08,2.2q4.54,0,7-2.18t2.45-6.78V84.4h12.26Z" transform="translate(0 0.04)"/><path class="cls-1" d="M282.44,134H270.2l-19.36-31.6-0.22.07V134H238.31V84.4h12.31L270,116l0.22-.07V84.4h12.24V134h0Z" transform="translate(0 0.04)"/><path class="cls-1" d="M331.95,116.57l0.07,0.2q-0.36,8.72-5.5,13.31t-14.91,4.6q-9.81,0-15.94-5.65a19,19,0,0,1-6.14-14.68V104q0-9,5.9-14.66t15.34-5.67q10,0,15.33,4.73t6,13.45l-0.07.2h-12q-0.25-4.83-2.31-7.18t-7-2.35a7.81,7.81,0,0,0-6.57,3.15,13.27,13.27,0,0,0-2.4,8.26v10.42a12.63,12.63,0,0,0,2.62,8.31,8.82,8.82,0,0,0,7.19,3.17q4.43,0,6.28-2.21t2.11-7h12v-0.06Z" transform="translate(0 0.04)"/><path class="cls-1" d="M382.68,134H370.45V114H350.87v20H338.56V84.4h12.31v20.77h19.58V84.4h12.24V134h0Z" transform="translate(0 0.04)"/><path class="cls-1" d="M424,112.76H403.31v12.36h24.44V134H391V84.4h36.83v8.85H403.31v10.66H424v8.85Z" transform="translate(0 0.04)"/><path class="cls-1" d="M445.63,115v19H433.31V84.4h20.34q9.19,0,14.56,4a12.83,12.83,0,0,1,5.38,10.9,10.39,10.39,0,0,1-2.16,6.61,15.26,15.26,0,0,1-6.37,4.5q4.87,1.29,7,4.31a12.7,12.7,0,0,1,2.13,7.51v3.13a18.56,18.56,0,0,0,.62,4.43,5.79,5.79,0,0,0,2.14,3.54V134H464.29a5.54,5.54,0,0,1-1.91-3.75,30,30,0,0,1-.45-5v-3a7.06,7.06,0,0,0-2-5.41,8.25,8.25,0,0,0-5.81-1.88h-8.49Zm0-8.85h8.1a8.83,8.83,0,0,0,5.67-1.58,5.5,5.5,0,0,0,2-4.55,6.33,6.33,0,0,0-2-4.89,8.08,8.08,0,0,0-5.68-1.86h-8v12.87h-0.09Z" transform="translate(0 0.04)"/><path class="cls-1" d="M140.47,200.25l0.07,0.2q-0.36,8.72-5.5,13.31t-14.92,4.61q-9.81,0-15.94-5.65A19,19,0,0,1,98,198V187.69q0-9,5.9-14.66t15.34-5.67q10,0,15.33,4.73t6,13.45l-0.07.2H128.59q-0.25-4.83-2.31-7.18t-7-2.35a7.81,7.81,0,0,0-6.57,3.15,13.28,13.28,0,0,0-2.4,8.26V198a12.63,12.63,0,0,0,2.62,8.31,8.82,8.82,0,0,0,7.19,3.17q4.43,0,6.28-2.21t2.11-7h11.95v-0.06Z" transform="translate(0 0.04)"/><path class="cls-1" d="M190.81,197.33a20,20,0,0,1-6.19,15.1q-6.19,5.94-16.18,5.94t-16.32-5.94a19.94,19.94,0,0,1-6.25-15.1v-8.92a20,20,0,0,1,6.25-15.09q6.23-6,16.25-6t16.2,6a20,20,0,0,1,6.25,15.08v8.92h0Zm-12.24-9a13.7,13.7,0,0,0-2.67-8.72,10.14,10.14,0,0,0-15.15,0,13.82,13.82,0,0,0-2.63,8.73v9a13.81,13.81,0,0,0,2.67,8.79,9.14,9.14,0,0,0,7.64,3.41,8.93,8.93,0,0,0,7.48-3.41,13.89,13.89,0,0,0,2.65-8.79v-9h0Z" transform="translate(0 0.04)"/><path class="cls-1" d="M214,168.08l11.84,34.7h0.23l12-34.7h16.2v49.58H242v-12.3l1.14-22.64H242.9l-12.75,35h-8.28l-12.6-34.66H209l1.16,22.34v12.29H197.93V168.08H214Z" transform="translate(0 0.04)"/><rect id="rect3362" class="cls-2" x="0.5" y="0.63" width="7.86" height="63.96"/><rect id="rect3366" class="cls-2" x="7.99" y="0.63" width="56.35" height="8.23"/><rect id="rect3368" class="cls-2" x="56.11" y="7.42" width="8.23" height="28.87"/><path id="path3374" class="cls-2" d="M8.67,64.4L8.53,54.86,32.28,39.31l7.94,8.06,15.9-11.12H64.3V41L40.17,57l-7.69-8.18Z" transform="translate(0 0.04)"/></svg>